<svg width="57" height="59" viewBox="0 0 57 59" fill="none" xmlns="http://www.w3.org/2000/svg">
<g clip-path="url(#clip0_2_1634)">
<path d="M56.1902 28.5189C56.1902 43.0332 44.3915 54.7908 29.8378 54.7908C15.2841 54.7908 3.48535 43.0261 3.48535 28.5189C3.48535 14.0118 15.2841 2.24707 29.8378 2.24707C44.3915 2.24707 56.1902 14.0118 56.1902 28.5189Z" fill="white"/>
<path d="M29.8378 54.7908C44.3918 54.7908 56.1902 43.0285 56.1902 28.5189C56.1902 14.0094 44.3918 2.24707 29.8378 2.24707C15.2837 2.24707 3.48535 14.0094 3.48535 28.5189C3.48535 43.0285 15.2837 54.7908 29.8378 54.7908Z" stroke="#0B0907" stroke-width="0.417" stroke-miterlimit="10"/>
<path d="M55.0867 28.0175C55.0867 42.5318 43.2879 54.2893 28.7343 54.2893C14.1806 54.2893 2.38184 42.5246 2.38184 28.0175C2.38184 13.5103 14.1806 1.74561 28.7343 1.74561C43.2879 1.74561 55.0867 13.5103 55.0867 28.0175Z" fill="#0B0907"/>
<path d="M53.8464 27.008C53.8464 41.5223 42.0477 53.2799 27.494 53.2799C12.9403 53.2799 1.1416 41.5152 1.1416 27.008C1.1416 12.5009 12.9403 0.729004 27.494 0.729004C42.0477 0.729004 53.8464 12.4937 53.8464 27.008Z" fill="#D5221C"/>
<path d="M8.27413 18.5803C8.35346 18.4156 8.51933 18.3297 8.60588 18.1864C8.91599 17.6924 9.37755 17.4274 9.92566 17.2914C10.5098 17.141 10.993 17.3343 11.3248 17.8857C11.606 18.3511 11.7791 18.8738 12.0532 19.3393C12.2551 19.6687 12.5292 19.9622 12.8104 20.2415C13.0701 20.4993 13.3081 20.3776 13.4739 20.0983C13.5533 19.9622 13.6326 19.8119 13.6687 19.6615C13.8345 19.0027 14.2672 18.6018 14.873 18.3297C15.3995 18.0934 15.6952 18.1363 15.9044 18.6805C16.2361 19.5756 16.6328 20.4778 16.7554 21.4087C16.9861 23.1773 17.0583 24.9603 17.1664 26.7432C17.2025 27.3232 17.0727 27.4092 16.4957 27.3877C15.1038 27.3376 15.0822 27.3376 14.9091 25.9484C14.837 25.3684 14.8803 24.7741 14.8586 24.1869C14.8226 23.1701 14.7721 22.1534 14.7216 21.1366C14.7144 21.0292 14.6928 20.8931 14.6278 20.8215C14.4836 20.6711 14.3033 20.5494 14.1374 20.4134C14.0293 20.5924 13.8706 20.7571 13.8345 20.9504C13.7696 21.2583 13.8201 21.5877 13.7624 21.9027C13.6398 22.5543 13.135 22.7334 12.7095 22.225C12.2695 21.7094 11.9522 21.0864 11.5772 20.5136C11.4907 20.3776 11.3825 20.263 11.2238 20.0625C11.1661 20.2487 11.1084 20.3346 11.1084 20.4205C11.1373 21.9815 11.1301 23.5497 11.2238 25.1035C11.2599 25.705 11.5267 26.2993 11.7142 26.8936C11.8873 27.4306 11.7214 27.6884 11.1661 27.6025C9.78863 27.3877 9.19004 26.9222 9.05302 25.6548C8.89435 24.2156 8.79339 22.7692 8.63472 21.3227C8.58424 20.9074 8.41837 20.4993 8.29576 20.0911C8.28134 20.041 8.27413 19.998 8.27413 19.9479C8.26692 19.461 8.22364 18.7664 8.27413 18.5803Z" fill="#0B0907"/>
<path d="M49.2235 37.6201C48.8845 37.885 48.56 38.1714 48.1994 38.3862C47.8388 38.6011 47.4205 38.7299 47.0238 38.8875C46.7426 39.002 46.4613 39.1023 46.18 39.2169C46.1079 39.2455 46.1007 39.3028 45.9637 39.3099C44.8963 39.3959 43.8001 39.3314 42.9275 38.5151C42.6173 38.2215 42.2423 37.9924 41.9322 37.6917C41.7519 37.5127 41.5283 37.2549 41.5355 37.0329C41.5428 36.0806 41.4923 35.1067 41.7086 34.1902C42.3072 31.5981 44.5501 31.1613 46.5046 31.8201C47.5359 32.1709 48.3292 32.8225 48.6105 33.9396C48.7763 34.5912 48.6177 34.8991 47.9686 35.0996C47.0527 35.386 46.1296 35.6509 45.2064 35.9087C44.5501 36.0877 44.3626 36.5818 44.7449 37.1546C45.567 38.3791 47.0743 38.4722 48.0407 37.3623C48.2427 37.1332 48.4374 36.8825 48.6898 36.7536C49.2235 36.4457 49.7067 37.2406 49.2235 37.6201ZM44.9179 35.0495C45.4156 35.0423 45.9709 34.9707 46.1296 34.4695C46.2233 34.1687 46.0646 33.7104 45.8699 33.424C45.7257 33.2235 45.3074 33.0732 45.055 33.1233C44.8314 33.1662 44.6223 33.4885 44.4852 33.7319C44.3843 33.9109 44.4203 34.1687 44.3771 34.3907C44.2761 34.9349 44.3698 35.0566 44.9179 35.0495Z" fill="#0B0907"/>
<path d="M39.9921 14.9424C39.8839 15.6799 39.7973 16.4246 39.6603 17.1621C39.6098 17.4199 39.4656 17.6634 39.3214 17.8853C39.2637 17.9713 39.0834 17.9784 38.9608 18.0214C38.9608 17.9068 38.9463 17.7851 38.968 17.6705C39.1771 16.8542 39.4007 16.0379 39.6171 15.2216C39.6387 15.1357 39.617 15.0355 39.6098 14.9424H39.9921Z" fill="#0B0907"/>
<path d="M33.0109 27.2298C33.0109 27.6595 33.0181 28.0891 33.0037 28.5187C32.9965 28.6333 32.9243 28.7478 32.8811 28.8624C32.7512 28.8123 32.5565 28.798 32.5133 28.712C32.3546 28.4185 32.2031 28.1034 32.1382 27.774C32.0373 27.2441 32.4267 26.6355 31.7488 26.1701C31.6406 26.0985 31.4387 26.0627 31.3089 26.0913C30.9338 26.1844 30.6237 26.4207 30.2992 26.6355C30.1766 26.7143 30.0828 26.8217 29.9674 26.9076C29.3544 27.3587 28.7126 27.8241 27.8976 27.5234C27.0033 27.194 26.4336 26.4493 26.4336 25.5543C26.4408 23.6639 26.7798 21.838 28.3736 20.5204C29.2535 19.7901 30.3569 19.7113 31.4603 19.5466C31.5324 19.5323 31.6118 19.5036 31.6695 19.4607C32.2031 19.117 32.4916 19.0454 32.6936 19.4464C32.8594 19.7757 33.0181 20.098 32.7801 20.4775C32.6863 20.6278 32.6647 20.8427 32.6719 21.0288C32.7296 22.4466 32.7945 23.8572 32.8811 25.2678C32.9171 25.9195 32.9892 26.5711 33.0542 27.2155C33.0325 27.2227 33.0253 27.2298 33.0109 27.2298ZM29.5131 23.2701C29.5059 23.3417 29.5131 23.4133 29.5347 23.4849C29.5924 23.6925 29.6718 23.9933 29.8088 24.2582C29.9602 24.5446 30.804 24.7666 31.0781 24.6449C31.4964 24.4587 31.28 24.1007 31.28 23.7999C31.2872 23.6424 31.28 23.4777 31.2728 23.3202C31.2295 22.733 31.2367 22.1387 31.1286 21.5587C31.0204 20.9787 30.6958 20.9071 30.2343 21.2938C29.6645 21.7807 29.6068 22.4538 29.5131 23.2701Z" fill="#0B0907"/>
<path d="M35.3113 37.6058C35.3258 37.6845 35.333 37.7705 35.3041 37.8421C35.0734 38.4149 34.7632 38.9376 34.1863 39.2312C33.6598 39.4961 33.2271 39.3028 33.1766 38.7085C33.0901 37.6129 33.0612 36.5174 33.0107 35.4218C32.9891 34.8991 33.018 34.3692 32.9314 33.8608C32.7655 32.8225 33.5084 31.6411 34.5397 31.3905C34.7993 31.326 34.994 31.3332 35.1383 31.5766C35.2392 31.7628 35.5205 31.8559 35.7224 31.7986C36.2633 31.6554 36.797 31.5122 37.3091 31.9418C37.374 31.9919 37.5903 31.8774 37.7346 31.8201C38.1529 31.6554 38.5495 31.4191 38.975 31.326C39.6601 31.19 40.3813 31.6769 40.4895 32.4216C40.6121 33.2307 40.5977 34.0685 40.6121 34.8919C40.6193 35.3359 40.54 35.7798 40.5184 36.2309C40.5112 36.367 40.5039 36.5675 40.5833 36.6391C40.9871 36.9828 40.7419 37.2621 40.5256 37.5342C40.1794 37.9709 39.826 38.4077 39.451 38.823C39.1914 39.1095 38.8957 39.3959 38.4558 39.2312C37.9942 39.0593 37.886 38.6512 37.9653 38.243C38.0879 37.5771 38.1961 36.8825 38.4774 36.2739C38.9894 35.1425 38.9534 33.9754 38.9245 32.8011C38.9245 32.6937 38.7731 32.4932 38.701 32.4932C38.5711 32.5003 38.3692 32.6077 38.3404 32.708C38.261 33.0087 38.2682 33.3381 38.2033 33.646C38.124 34.047 38.0663 34.4623 37.8932 34.8275C37.7273 35.1784 37.4749 35.1426 37.3235 34.7702C37.2009 34.4766 37.1576 34.1544 37.0999 33.8465C36.9773 33.2307 36.6528 32.8584 36.2273 32.8512C35.7441 32.844 35.2392 33.3309 35.1455 33.9038C35.1383 33.9682 35.1311 34.0327 35.1311 34.0971C35.1311 34.5912 35.1311 35.0853 35.1311 35.5793" fill="#0B0907"/>
<path d="M21.8252 27.6024C21.3997 27.5594 21.0463 27.538 20.7002 27.495C20.116 27.4234 19.5895 27.2301 19.1568 26.7861C18.8683 26.4925 18.4933 26.2777 18.2048 25.9841C18.0173 25.7908 17.7937 25.5115 17.801 25.2752C17.837 23.6641 17.8082 22.0029 18.7024 20.5851C18.7601 20.492 18.8539 20.4204 18.9549 20.3775C21.0175 19.5325 23.0512 19.6185 24.4215 21.2869C24.4504 21.3155 24.472 21.3585 24.4864 21.3871C25.186 22.719 25.0778 23.1557 23.9527 23.4636C22.9935 23.7286 22.0416 24.015 21.0896 24.3086C20.7723 24.4088 20.628 24.731 20.7723 25.0318C21.5079 26.6286 23.2315 26.872 24.2917 25.6548C24.4792 25.4399 24.6667 25.1965 24.9047 25.0533C25.0489 24.9745 25.3518 25.0103 25.4817 25.1106C25.5826 25.1965 25.6187 25.5259 25.5394 25.6404C25.0562 26.335 24.4071 26.8506 23.5921 27.1298C23.1738 27.2802 22.7483 27.4162 22.3228 27.538C22.1425 27.6024 21.9478 27.5952 21.8252 27.6024ZM21.2122 23.3706C21.6233 23.3276 22.1714 23.3061 22.3445 22.8192C22.4527 22.5185 22.3373 22.053 22.157 21.7666C22.0271 21.559 21.6089 21.4014 21.3492 21.4372C21.1184 21.4659 20.8804 21.7738 20.7506 22.0101C20.6352 22.2177 20.6569 22.5041 20.628 22.7619C20.5559 23.2417 20.6713 23.3706 21.2122 23.3706Z" fill="#0B0907"/>
<path d="M39.2923 25.7619C40.0135 25.7619 40.7347 25.7619 41.4559 25.7619C41.5497 25.7619 41.6723 25.7333 41.7372 25.7834C41.9319 25.9051 42.105 26.0483 42.2925 26.1915C42.1338 26.3491 41.9896 26.6068 41.8093 26.6355C40.8357 26.8145 39.8549 26.9935 38.8668 27.0723C37.9509 27.1439 37.0061 27.2799 36.1047 26.8718C36.0181 26.8288 35.8234 26.9935 35.6864 27.0794C35.4195 27.2441 35.1383 27.5878 34.9003 27.5592C34.4748 27.5091 34.4603 27.0436 34.4026 26.6784C34.0348 24.516 34.143 22.3463 34.4171 20.1982C34.5613 19.0668 34.9508 17.9068 36.1984 17.377C36.3282 17.3197 36.523 17.2982 36.6383 17.3555C36.7177 17.3984 36.7682 17.6276 36.7249 17.735C36.2633 19.117 36.6167 20.5491 36.4653 21.9597C36.3571 23.0051 36.3859 24.0649 36.3787 25.1103C36.3787 25.6688 36.5085 25.7691 37.0711 25.7762C37.8067 25.7834 38.5495 25.7762 39.2851 25.7762C39.2923 25.7691 39.2923 25.7691 39.2923 25.7619Z" fill="#0B0907"/>
<path d="M24.8404 35.1494C24.7972 36.1304 24.7034 37.1042 24.7827 38.0852C24.7827 38.121 24.79 38.1496 24.7972 38.1783C24.8837 38.522 24.9991 39.2094 24.5159 39.2595C24.2923 39.281 24.0111 39.0304 23.8091 38.8442C23.701 38.744 23.6937 38.522 23.6793 38.3501C23.5711 36.7319 23.4557 35.1064 23.3908 33.4882C23.3692 32.9511 23.6144 32.3854 23.7082 31.8771C23.7514 31.6408 23.6144 31.3758 23.3908 31.2899C22.9004 31.0894 22.3667 31.0321 21.8403 30.9462C21.5157 30.8961 20.9748 30.3161 20.9388 29.9652C20.9027 29.6 21.1696 29.242 21.6672 29.1489C22.3956 29.0057 23.1096 28.8553 23.8596 29.2348C24.725 29.6716 25.6554 29.7217 26.629 29.4496C27.141 29.3064 27.7036 29.3351 28.2445 29.3422C28.5979 29.3494 28.6988 29.5857 28.5257 29.9008C28.1796 30.5094 27.718 31.0106 27.0617 31.3114C26.8598 31.4045 26.6506 31.519 26.4992 31.6766C26.3333 31.8484 26.0737 31.8985 25.8645 31.7983C25.403 31.5691 25.1073 31.7338 25.0496 32.1706" fill="#0B0907"/>
<path d="M29.3184 34.7914C29.3256 33.3306 30.2126 32.4785 31.4026 32.6289C31.7632 32.6719 31.9579 32.9941 31.8281 33.3306C31.7488 33.5383 31.6695 33.7746 31.6695 33.9966C31.6695 35.5074 31.6911 37.0183 31.7055 38.5292C31.7127 38.9445 31.4242 39.1664 31.0853 39.2953C30.7103 39.4385 30.3857 39.2667 30.2343 38.9445C29.9819 38.4146 29.7294 37.8632 29.6213 37.2975C29.4482 36.4168 29.3977 35.5217 29.3184 34.7914Z" fill="#0B0907"/>
<path d="M29.42 29.9796C29.4273 29.3352 29.8095 28.927 30.4153 28.9342C31.0355 28.9413 31.4394 29.2349 31.425 29.6574C31.4033 30.2374 30.7687 30.8675 30.1989 30.8747C29.7229 30.8818 29.4128 30.5238 29.42 29.9796Z" fill="#0B0907"/>
<path d="M45.9998 19.4468C45.8989 20.349 43.9805 21.5448 43.3242 21.1868C44.2401 20.5925 45.12 20.0196 45.9998 19.4468Z" fill="#0B0907"/>
<path d="M48.8056 26.3136C48.6108 26.4067 48.5171 26.4855 48.4161 26.4926C47.6877 26.5571 46.9521 26.6144 46.2237 26.643C46.0506 26.6502 45.8559 26.5427 45.69 26.4568C45.6323 26.4282 45.5962 26.2921 45.6035 26.2134C45.6035 26.1704 45.7188 26.106 45.7838 26.106C46.6925 26.1131 47.6012 26.1346 48.5171 26.1561C48.582 26.1632 48.6469 26.2277 48.8056 26.3136Z" fill="#0B0907"/>
<path d="M7.69013 18.1076C7.76946 17.9429 7.93534 17.857 8.02188 17.7138C8.33199 17.2197 8.79356 16.9548 9.34166 16.8187C9.92583 16.6684 10.409 16.8617 10.7408 17.413C11.022 17.8785 11.1951 18.4012 11.4692 18.8666C11.6711 19.196 11.9452 19.4896 12.2264 19.7688C12.4861 20.0266 12.7241 19.9049 12.8899 19.6256C12.9693 19.4896 13.0486 19.3392 13.0847 19.1888C13.2505 18.5301 13.6832 18.1291 14.2891 17.857C14.8155 17.6207 15.1112 17.6637 15.3204 18.2079C15.6521 19.1029 16.0488 20.0051 16.1714 20.936C16.4021 22.7046 16.4743 24.4876 16.5824 26.2706C16.6185 26.8506 16.4887 26.9365 15.9117 26.915C14.5198 26.8649 14.4982 26.8649 14.3251 25.4758C14.253 24.8958 14.2963 24.3014 14.2746 23.7143C14.2386 22.6975 14.1881 21.6807 14.1376 20.6639C14.1304 20.5565 14.1088 20.4205 14.0438 20.3488C13.8996 20.1985 13.7193 20.0767 13.5534 19.9407C13.4453 20.1197 13.2866 20.2844 13.2505 20.4777C13.1856 20.7856 13.2361 21.115 13.1784 21.4301C13.0558 22.0817 12.551 22.2607 12.1255 21.7523C11.6855 21.2367 11.3682 20.6138 10.9932 20.0409C10.9067 19.9049 10.7985 19.7903 10.6398 19.5898C10.5821 19.776 10.5244 19.8619 10.5244 19.9479C10.5533 21.5088 10.5461 23.077 10.6398 24.6308C10.6759 25.2323 10.9427 25.8266 11.1302 26.4209C11.3033 26.958 11.1374 27.2158 10.5821 27.1298C9.20464 26.915 8.60605 26.4496 8.46902 25.1822C8.31036 23.7429 8.20939 22.2965 8.05073 20.8501C8.00024 20.4348 7.83437 20.0266 7.71177 19.6185C7.69734 19.5684 7.69013 19.5254 7.69013 19.4753C7.69013 18.9955 7.64686 18.3009 7.69013 18.1076Z" fill="white"/>
<path d="M48.6463 37.1474C48.3074 37.4124 47.9828 37.6988 47.6222 37.9136C47.2616 38.1284 46.8433 38.2573 46.4467 38.4148C46.1654 38.5294 45.8841 38.6296 45.6029 38.7442C45.5308 38.7729 45.5236 38.8301 45.3865 38.8373C44.3192 38.9232 43.2229 38.8588 42.3503 38.0425C42.0402 37.7489 41.6652 37.5198 41.3551 37.219C41.1748 37.04 40.9512 36.7822 40.9584 36.5603C40.9656 35.6079 40.9151 34.6341 41.1315 33.7175C41.7301 31.1254 43.973 30.6887 45.9274 31.3474C46.9587 31.6983 47.752 32.3499 48.0333 33.4669C48.1992 34.1185 48.0405 34.4264 47.3914 34.6269C46.4755 34.9133 45.5524 35.1783 44.6293 35.4361C43.973 35.6151 43.7855 36.1091 44.1677 36.682C44.9899 37.9064 46.4972 37.9995 47.4636 36.8896C47.6655 36.6605 47.8602 36.4099 48.1126 36.281C48.6391 35.9803 49.1295 36.7679 48.6463 37.1474ZM44.3408 34.5768C44.8384 34.5696 45.3937 34.498 45.5524 33.9968C45.6462 33.6961 45.4875 33.2378 45.2928 32.9514C45.1485 32.7509 44.7302 32.6005 44.4778 32.6506C44.2543 32.6936 44.0451 33.0158 43.9081 33.2593C43.8071 33.4383 43.8432 33.6961 43.7999 33.918C43.6917 34.4694 43.7927 34.584 44.3408 34.5768Z" fill="white"/>
<path d="M39.4081 14.4702C39.2999 15.2077 39.2134 15.9524 39.0763 16.69C39.0259 16.9477 38.8816 17.1912 38.7374 17.4132C38.6797 17.4991 38.4994 17.5063 38.3768 17.5492C38.3768 17.4347 38.3624 17.3129 38.384 17.1984C38.5931 16.3821 38.8167 15.5658 39.0331 14.7495C39.0547 14.6636 39.0331 14.5633 39.0259 14.4702H39.4081Z" fill="white"/>
<path d="M32.4273 26.7572C32.4273 27.1868 32.4345 27.6164 32.4201 28.0461C32.4128 28.1606 32.3407 28.2752 32.2975 28.3898C32.1676 28.3396 31.9729 28.3253 31.9224 28.2394C31.7638 27.9458 31.6123 27.6307 31.5474 27.3014C31.4464 26.7715 31.8359 26.1628 31.158 25.6974C31.0498 25.6258 30.8479 25.59 30.718 25.6186C30.343 25.7117 30.0329 25.948 29.7084 26.1628C29.5858 26.2416 29.492 26.349 29.3766 26.4349C28.7636 26.8861 28.1217 27.3515 27.3068 27.0507C26.4125 26.7214 25.8428 25.9767 25.8428 25.0816C25.85 23.1912 26.1889 21.3653 27.7828 20.0478C28.6626 19.3174 29.7661 19.2386 30.8695 19.074C30.9416 19.0596 31.0209 19.031 31.0786 18.988C31.6123 18.6443 31.9008 18.5727 32.1027 18.9737C32.2686 19.3031 32.4273 19.6253 32.1893 20.0048C32.0955 20.1552 32.0739 20.37 32.0811 20.5562C32.1388 21.974 32.2037 23.3846 32.2902 24.7952C32.3263 25.4468 32.3984 26.0984 32.4633 26.7428C32.4561 26.7572 32.4417 26.7572 32.4273 26.7572ZM28.9295 22.7974C28.9223 22.869 28.9295 22.9406 28.9511 23.0122C29.0088 23.2199 29.0881 23.5206 29.2252 23.7856C29.3766 24.072 30.2204 24.294 30.4945 24.1722C30.9128 23.9861 30.6964 23.628 30.6964 23.3273C30.7036 23.1698 30.6964 23.0051 30.6892 22.8475C30.6459 22.2604 30.6531 21.6661 30.545 21.0861C30.4368 20.5061 30.1122 20.4344 29.6507 20.8211C29.0881 21.308 29.0305 21.9883 28.9295 22.7974Z" fill="white"/>
<path d="M34.7352 37.1399C34.7496 37.2187 34.7568 37.3046 34.728 37.3762C34.4972 37.9491 34.1871 38.4718 33.6101 38.7654C33.0836 39.0303 32.6509 38.837 32.6004 38.2427C32.5067 37.1471 32.4851 36.0515 32.4346 34.956C32.4129 34.4333 32.4418 33.9034 32.3552 33.395C32.1894 32.3567 32.9322 31.1752 33.9635 30.9246C34.2231 30.8602 34.4178 30.8673 34.5621 31.1108C34.6631 31.297 34.9443 31.3901 35.1463 31.3328C35.6871 31.1896 36.2208 31.0464 36.7329 31.476C36.7978 31.5261 37.0141 31.4115 37.1584 31.3543C37.5767 31.1896 37.9661 30.9533 38.3988 30.8602C39.084 30.7241 39.8052 31.211 39.9133 31.9557C40.0359 32.7649 40.0215 33.6027 40.036 34.4261C40.0432 34.8701 39.9638 35.314 39.9422 35.7651C39.935 35.9012 39.9278 36.1017 40.0071 36.1733C40.411 36.517 40.1658 36.7962 39.9494 37.0683C39.6032 37.5051 39.2498 37.9419 38.8748 38.3572C38.6152 38.6436 38.3195 38.9301 37.8796 38.7654C37.418 38.5935 37.3098 38.1854 37.3892 37.7772C37.5118 37.1113 37.62 36.4167 37.9012 35.8081C38.4133 34.6767 38.3772 33.5096 38.3484 32.3352C38.3484 32.2278 38.1969 32.0273 38.1248 32.0273C37.995 32.0345 37.793 32.1419 37.7642 32.2422C37.6849 32.5429 37.6921 32.8723 37.6272 33.1802C37.5478 33.5812 37.4901 33.9965 37.317 34.3617C37.1512 34.7125 36.8988 34.6767 36.7473 34.3044C36.6247 34.0108 36.5814 33.6886 36.5237 33.3807C36.4011 32.7649 36.0766 32.3925 35.6511 32.3854C35.1679 32.3782 34.6631 32.8651 34.5693 33.438C34.5621 33.5024 34.5549 33.5668 34.5549 33.6313C34.5549 34.1254 34.5549 34.6194 34.5549 35.1135" fill="white"/>
<path d="M21.2481 27.1371C20.8226 27.0941 20.4692 27.0726 20.123 27.0297C19.5388 26.9581 19.0124 26.7647 18.5796 26.3208C18.2912 26.0272 17.9161 25.8124 17.6277 25.5188C17.4402 25.3255 17.2166 25.0462 17.2238 24.8099C17.2599 23.1988 17.231 21.5376 18.1253 20.1198C18.183 20.0267 18.2767 19.9551 18.3777 19.9121C20.4403 19.0672 22.4741 19.1531 23.8444 20.8215C23.8732 20.8502 23.8948 20.8931 23.9093 20.9218C24.6088 22.2536 24.5006 22.6904 23.3756 22.9983C22.4164 23.2632 21.4644 23.5497 20.5124 23.8432C20.1951 23.9435 20.0509 24.2657 20.1951 24.5665C20.9307 26.1632 22.6544 26.4067 23.7145 25.1894C23.9021 24.9746 24.0896 24.7311 24.3276 24.5879C24.4718 24.5092 24.7747 24.545 24.9045 24.6452C25.0055 24.7311 25.0415 25.0605 24.9622 25.1751C24.479 25.8697 23.8299 26.3781 23.015 26.6645C22.5967 26.8149 22.1712 26.9509 21.7457 27.0726C21.5654 27.1299 21.3635 27.1228 21.2481 27.1371ZM20.6278 22.9052C21.0389 22.8623 21.587 22.8408 21.7601 22.3539C21.8683 22.0531 21.7529 21.5877 21.5726 21.3013C21.4428 21.0936 21.0245 20.9361 20.7649 20.9719C20.5341 21.0005 20.2961 21.3084 20.1663 21.5447C20.0509 21.7524 20.0725 22.0388 20.0437 22.2966C19.9788 22.7692 20.0942 22.9052 20.6278 22.9052Z" fill="white"/>
<path d="M38.7162 25.2897C39.4374 25.2897 40.1586 25.2897 40.8797 25.2897C40.9735 25.2897 41.0961 25.2611 41.161 25.3112C41.3557 25.4329 41.5288 25.5761 41.7163 25.7194C41.5577 25.8769 41.4134 26.1347 41.2331 26.1633C40.2595 26.3423 39.2787 26.5213 38.2907 26.6001C37.3747 26.6717 36.43 26.8078 35.5285 26.3996C35.4419 26.3566 35.2472 26.5213 35.1102 26.6073C34.8434 26.7719 34.5621 27.1157 34.3241 27.087C33.8986 27.0369 33.8842 26.5715 33.8265 26.2063C33.4587 24.0438 33.5668 21.8742 33.8409 19.726C33.9851 18.5947 34.3746 17.4347 35.6222 16.9048C35.7521 16.8475 35.9468 16.826 36.0622 16.8833C36.1415 16.9263 36.192 17.1554 36.1487 17.2628C35.6727 18.6448 36.0189 20.084 35.8674 21.4947C35.7593 22.5401 35.7881 23.5999 35.7809 24.6453C35.7809 25.2038 35.9107 25.304 36.4733 25.3112C37.2089 25.3184 37.9517 25.3112 38.6873 25.3112C38.7162 25.304 38.7162 25.2969 38.7162 25.2897Z" fill="white"/>
<path d="M24.2555 34.6841C24.2122 35.6651 24.1185 36.6389 24.1978 37.6199C24.1978 37.6557 24.205 37.6843 24.2122 37.713C24.2987 38.0567 24.4141 38.7441 23.9309 38.7942C23.7074 38.8157 23.4261 38.5651 23.2242 38.3789C23.116 38.2786 23.1088 38.0567 23.0944 37.8848C22.9862 36.2665 22.8708 34.6411 22.8059 33.0228C22.7842 32.4858 23.0294 31.9201 23.1232 31.4117C23.1665 31.1754 23.0294 30.9105 22.8059 30.8246C22.3155 30.6241 21.7818 30.5668 21.2553 30.4809C20.9308 30.4307 20.3899 29.8507 20.3538 29.4999C20.3178 29.1347 20.5846 28.7767 21.0822 28.6836C21.8106 28.5404 22.5246 28.39 23.2747 28.7695C24.1401 29.2063 25.0704 29.2564 26.044 28.9843C26.5561 28.8411 27.1186 28.8697 27.6595 28.8769C28.0129 28.8841 28.1139 29.1204 27.9408 29.4354C27.5946 30.0441 27.133 30.5453 26.4768 30.846C26.2748 30.9391 26.0657 31.0537 25.9142 31.2112C25.7483 31.3831 25.4887 31.4332 25.2796 31.333C24.818 31.1038 24.5223 31.2685 24.4646 31.7053" fill="white"/>
<path d="M28.7344 34.3187C28.7416 32.858 29.6287 32.0059 30.8186 32.1562C31.1792 32.1992 31.3739 32.5214 31.2441 32.858C31.1648 33.0656 31.0855 33.3019 31.0855 33.5239C31.0855 35.0348 31.1071 36.5456 31.1215 38.0565C31.1287 38.4718 30.8403 38.6938 30.5013 38.8227C30.1263 38.9659 29.8017 38.794 29.6503 38.4718C29.3979 37.9419 29.1455 37.3906 29.0373 36.8249C28.8714 35.9513 28.8209 35.0562 28.7344 34.3187Z" fill="white"/>
<path d="M28.835 29.5143C28.8422 28.8698 29.2244 28.4617 29.8302 28.4688C30.4504 28.476 30.8543 28.7696 30.8399 29.1921C30.8182 29.7721 30.1836 30.4022 29.6138 30.4093C29.1451 30.4165 28.835 30.0585 28.835 29.5143Z" fill="white"/>
<path d="M45.4227 18.981C45.3217 19.8832 43.4034 21.079 42.7471 20.721C43.663 20.1195 44.5428 19.5538 45.4227 18.981Z" fill="white"/>
<path d="M48.2216 25.841C48.0269 25.934 47.9331 26.0128 47.8321 26.02C47.1037 26.0844 46.3681 26.1417 45.6397 26.1703C45.4666 26.1775 45.2719 26.0701 45.106 25.9842C45.0483 25.9555 45.0123 25.8195 45.0195 25.7407C45.0195 25.6977 45.1349 25.6333 45.1998 25.6333C46.1085 25.6405 47.0172 25.6619 47.9331 25.6834C47.998 25.6906 48.0629 25.755 48.2216 25.841Z" fill="white"/>
<path d="M18.0612 50.8026L17.6645 51.4041C17.8809 51.49 18.3425 51.9125 18.3713 52.3278C18.6021 52.1989 19.7055 51.6905 19.7704 51.6834C19.9291 51.6547 20.0084 51.8194 20.0373 51.9841C20.0445 52.0056 18.8184 52.693 18.4074 52.9651C18.0972 53.9604 17.8088 54.4616 17.203 55.4498C16.5972 56.4451 15.2702 57.7841 14.7221 57.913C14.2461 58.0275 13.972 57.6838 13.9215 57.3903C13.5826 55.3066 16.0202 53.8816 17.7222 52.7073C17.7366 52.5641 17.6573 52.3708 17.6357 52.2633C17.6285 52.2347 17.4265 52.0056 17.1885 51.8982C17.0155 51.8122 16.9289 51.7621 16.9073 51.6475C16.9001 51.5473 17.0804 51.3611 17.3905 50.8957C17.6285 50.5448 17.8665 50.0794 17.8232 49.7787C17.7943 49.6498 17.6645 49.4779 17.5347 49.5066C17.3256 49.5495 17.1381 49.6641 16.8352 49.929C16.3664 50.3515 15.9625 50.7596 15.775 50.7811C15.5586 50.8098 15.4433 50.7382 15.4072 50.5377C15.3856 50.2799 16.251 49.614 16.4673 49.4278C16.8279 49.1271 17.376 48.8764 17.5131 48.8478C17.953 48.7619 18.3352 49.1557 18.3929 49.6211C18.429 50.0221 18.2271 50.5592 18.0612 50.8026ZM17.6429 53.4162C17.102 53.7599 14.3038 55.5858 14.5562 57.1396C14.5706 57.2685 14.6211 57.2471 14.7365 57.2256C14.9312 57.1898 16.0418 56.1229 16.5467 55.4211C17.0587 54.7051 17.4337 53.9103 17.6429 53.4162Z" fill="black" stroke="black" stroke-width="0.35" stroke-miterlimit="10" stroke-linecap="round" stroke-linejoin="round"/>
<path d="M18.0612 50.8026L17.6645 51.4041C17.8809 51.49 18.3425 51.9125 18.3713 52.3278C18.6021 52.1989 19.7055 51.6905 19.7704 51.6834C19.9291 51.6547 20.0084 51.8194 20.0373 51.9841C20.0445 52.0056 18.8184 52.693 18.4074 52.9651C18.0972 53.9604 17.8088 54.4616 17.203 55.4498C16.5972 56.4451 15.2702 57.7841 14.7221 57.913C14.2461 58.0275 13.972 57.6838 13.9215 57.3903C13.5826 55.3066 16.0202 53.8816 17.7222 52.7073C17.7366 52.5641 17.6573 52.3708 17.6357 52.2633C17.6285 52.2347 17.4265 52.0056 17.1885 51.8982C17.0155 51.8122 16.9289 51.7621 16.9073 51.6475C16.9001 51.5473 17.0804 51.3611 17.3905 50.8957C17.6285 50.5448 17.8665 50.0794 17.8232 49.7787C17.7943 49.6498 17.6645 49.4779 17.5347 49.5066C17.3256 49.5495 17.1381 49.6641 16.8352 49.929C16.3664 50.3515 15.9625 50.7596 15.775 50.7811C15.5586 50.8098 15.4433 50.7382 15.4072 50.5377C15.3856 50.2799 16.251 49.614 16.4673 49.4278C16.8279 49.1271 17.376 48.8764 17.5131 48.8478C17.953 48.7619 18.3352 49.1557 18.3929 49.6211C18.429 50.0221 18.2271 50.5592 18.0612 50.8026ZM17.6429 53.4162C17.102 53.7599 14.3038 55.5858 14.5562 57.1396C14.5706 57.2685 14.6211 57.2471 14.7365 57.2256C14.9312 57.1898 16.0418 56.1229 16.5467 55.4211C17.0587 54.7051 17.4337 53.9103 17.6429 53.4162Z" fill="black" stroke="black" stroke-width="0.35" stroke-miterlimit="10" stroke-linecap="round" stroke-linejoin="round"/>
<path d="M23.8592 51.7188C23.513 52.1341 23.1741 52.3776 22.8423 52.442C22.5683 52.4993 22.3591 52.4635 22.2149 52.3346C22.1139 52.2344 22.049 52.1055 22.0202 51.948C21.9769 51.726 21.9985 51.4038 22.0418 51.1245L21.1475 52.2201C20.7581 52.6568 20.4119 52.9003 20.1234 52.9576C19.8349 53.0149 19.5681 52.8144 19.5248 52.6139C19.496 52.4563 19.6114 52.1126 19.871 51.5899C20.1306 51.0672 20.4407 50.5803 20.7797 50.1149C21.1042 49.6924 21.3278 49.406 21.4576 49.2484C21.912 48.7114 22.287 48.4035 22.5611 48.3534C22.763 48.3104 22.9577 48.3391 23.1308 48.4393C23.275 48.3247 23.4121 48.1242 23.4842 48.1099C23.6573 48.0741 23.7582 48.1529 23.8015 48.3534C23.8159 48.425 23.7871 48.5467 23.715 48.6756L23.4337 49.1554C23.1597 49.6136 22.9721 50.0003 22.8423 50.301C22.6404 50.7808 22.5683 51.1675 22.6332 51.4754C22.6692 51.6472 22.7341 51.7618 22.864 51.7403C23.1524 51.683 23.4626 51.4252 23.8015 50.967L24.3568 50.2008C24.3857 50.165 24.4145 50.1435 24.4434 50.1363C24.5588 50.1149 24.6381 50.1722 24.6669 50.3225C24.6886 50.4514 24.6669 50.5445 24.566 50.6949C24.126 51.3321 23.8953 51.6759 23.8592 51.7188ZM22.388 49.3773C22.3736 49.3129 22.3447 49.2843 22.2942 49.2986C22.0923 49.3415 21.7101 49.764 21.1692 50.5731C20.621 51.3823 20.3903 51.8262 20.484 51.905C20.5778 51.9838 20.9023 51.6687 21.4576 50.9813C22.013 50.2796 22.3231 49.8213 22.3808 49.628C22.4024 49.542 22.4096 49.4633 22.388 49.3773Z" fill="black" stroke="black" stroke-width="0.35" stroke-miterlimit="10" stroke-linecap="round" stroke-linejoin="round"/>
<path d="M23.8592 51.7188C23.513 52.1341 23.1741 52.3776 22.8423 52.442C22.5683 52.4993 22.3591 52.4635 22.2149 52.3346C22.1139 52.2344 22.049 52.1055 22.0202 51.948C21.9769 51.726 21.9985 51.4038 22.0418 51.1245L21.1475 52.2201C20.7581 52.6568 20.4119 52.9003 20.1234 52.9576C19.8349 53.0149 19.5681 52.8144 19.5248 52.6139C19.496 52.4563 19.6114 52.1126 19.871 51.5899C20.1306 51.0672 20.4407 50.5803 20.7797 50.1149C21.1042 49.6924 21.3278 49.406 21.4576 49.2484C21.912 48.7114 22.287 48.4035 22.5611 48.3534C22.763 48.3104 22.9577 48.3391 23.1308 48.4393C23.275 48.3247 23.4121 48.1242 23.4842 48.1099C23.6573 48.0741 23.7582 48.1529 23.8015 48.3534C23.8159 48.425 23.7871 48.5467 23.715 48.6756L23.4337 49.1554C23.1597 49.6136 22.9721 50.0003 22.8423 50.301C22.6404 50.7808 22.5683 51.1675 22.6332 51.4754C22.6692 51.6472 22.7341 51.7618 22.864 51.7403C23.1524 51.683 23.4626 51.4252 23.8015 50.967L24.3568 50.2008C24.3857 50.165 24.4145 50.1435 24.4434 50.1363C24.5588 50.1149 24.6381 50.1722 24.6669 50.3225C24.6886 50.4514 24.6669 50.5445 24.566 50.6949C24.126 51.3321 23.8953 51.6759 23.8592 51.7188ZM22.388 49.3773C22.3736 49.3129 22.3447 49.2843 22.2942 49.2986C22.0923 49.3415 21.7101 49.764 21.1692 50.5731C20.621 51.3823 20.3903 51.8262 20.484 51.905C20.5778 51.9838 20.9023 51.6687 21.4576 50.9813C22.013 50.2796 22.3231 49.8213 22.3808 49.628C22.4024 49.542 22.4096 49.4633 22.388 49.3773Z" fill="black" stroke="black" stroke-width="0.35" stroke-miterlimit="10" stroke-linecap="round" stroke-linejoin="round"/>
<path d="M27.3208 50.2942C26.8809 50.7668 26.5131 51.1248 26.2174 51.3682C25.7486 51.7334 25.3159 51.9626 24.9337 52.0342C24.5082 52.1201 24.0827 51.8838 23.9961 51.4255C23.9529 51.2036 24.0394 50.8169 24.263 50.2727C24.5082 49.6855 24.8039 49.1986 25.15 48.8048C25.4097 48.504 25.7126 48.232 26.0371 47.9957C26.3761 47.745 26.6357 47.6018 26.8232 47.566C27.1982 47.4944 27.2776 47.566 27.3208 47.7737C27.3425 47.8668 27.3136 47.9599 27.2271 48.0315C27.0828 48.1818 26.578 48.3322 26.1525 48.6831C25.9001 48.8979 25.6405 49.17 25.4097 49.4994C25.2077 49.7715 25.0419 50.0865 24.8904 50.4374C24.739 50.7882 24.6741 51.0245 24.7101 51.1821C24.7318 51.2966 24.8327 51.3539 24.9986 51.3324C25.3376 51.268 25.7558 51.0174 26.2318 50.5878C26.3905 50.4445 26.6285 50.2011 26.9747 49.8645C27.1478 49.6855 27.3857 49.4349 27.4867 49.4206C27.6237 49.392 27.7103 49.4349 27.7319 49.528C27.768 49.7428 27.6165 49.9791 27.3208 50.2942Z" fill="black" stroke="black" stroke-width="0.35" stroke-miterlimit="10" stroke-linecap="round" stroke-linejoin="round"/>
<path d="M27.3208 50.2942C26.8809 50.7668 26.5131 51.1248 26.2174 51.3682C25.7486 51.7334 25.3159 51.9626 24.9337 52.0342C24.5082 52.1201 24.0827 51.8838 23.9961 51.4255C23.9529 51.2036 24.0394 50.8169 24.263 50.2727C24.5082 49.6855 24.8039 49.1986 25.15 48.8048C25.4097 48.504 25.7126 48.232 26.0371 47.9957C26.3761 47.745 26.6357 47.6018 26.8232 47.566C27.1982 47.4944 27.2776 47.566 27.3208 47.7737C27.3425 47.8668 27.3136 47.9599 27.2271 48.0315C27.0828 48.1818 26.578 48.3322 26.1525 48.6831C25.9001 48.8979 25.6405 49.17 25.4097 49.4994C25.2077 49.7715 25.0419 50.0865 24.8904 50.4374C24.739 50.7882 24.6741 51.0245 24.7101 51.1821C24.7318 51.2966 24.8327 51.3539 24.9986 51.3324C25.3376 51.268 25.7558 51.0174 26.2318 50.5878C26.3905 50.4445 26.6285 50.2011 26.9747 49.8645C27.1478 49.6855 27.3857 49.4349 27.4867 49.4206C27.6237 49.392 27.7103 49.4349 27.7319 49.528C27.768 49.7428 27.6165 49.9791 27.3208 50.2942Z" fill="black" stroke="black" stroke-width="0.35" stroke-miterlimit="10" stroke-linecap="round" stroke-linejoin="round"/>
<path d="M27.6246 50.0365C27.6246 50.1367 27.4082 50.5592 27.4371 50.7239C27.4731 50.8957 27.4803 50.9459 27.6101 50.9244C27.8626 50.8743 28.1727 50.6451 28.8867 49.5567C29.1319 49.1271 29.341 48.6115 29.817 47.8454C30.1632 47.3083 30.632 46.9288 30.7473 46.9073C30.8627 46.8859 31.0142 46.9646 31.0358 47.0792C31.0935 47.3871 30.9565 47.8382 30.8699 48.2106L30.6752 49.0483C30.5959 49.3849 30.43 50.0938 30.4372 50.1296C30.4661 50.2656 30.5166 50.3229 30.6031 50.3086C30.7618 50.1797 30.9781 50.015 31.1512 49.7859L31.9013 48.8836C32.4205 48.2535 32.7739 47.2224 33.3797 47.1007C33.4951 47.0792 33.56 47.1222 33.5816 47.2367C33.6393 47.5446 33.4735 47.9599 33.3653 48.318L33.1056 49.1701C32.9975 49.4994 32.9109 49.8217 32.9181 49.8503C32.947 49.9864 32.9975 50.0436 33.0768 50.0293C33.1489 50.015 33.4518 49.7501 33.834 49.435C34.2091 49.1056 34.4254 48.9481 34.4543 48.9409C34.5552 48.9123 34.6202 48.9481 34.649 49.0913C34.6778 49.2488 34.4326 49.5711 33.899 50.0365C33.3581 50.5019 33.185 50.7167 32.8965 50.774C32.6224 50.8313 32.3917 50.5878 32.3268 50.373C32.2186 49.9792 32.4277 49.3849 32.6729 48.7261C32.3268 49.1557 32.0527 49.6069 31.4541 50.2585C30.9709 50.7812 30.6969 51.0031 30.4084 51.0533C30.1343 51.1106 29.8963 50.8671 29.8386 50.6523C29.7954 50.4733 29.9324 49.6713 29.9901 49.3634C30.0406 49.1199 30.1992 48.5328 30.3002 48.1533L29.3771 49.836C28.728 51.0175 28.1799 51.3683 27.5669 51.5044C27.163 51.5903 26.9034 51.3182 26.8601 51.0819C26.8024 50.7883 26.9611 49.8646 27.3649 49.7859C27.5597 49.7286 27.6318 49.9362 27.6246 50.0365Z" fill="black" stroke="black" stroke-width="0.35" stroke-miterlimit="10" stroke-linecap="round" stroke-linejoin="round"/>
<path d="M27.6246 50.0365C27.6246 50.1367 27.4082 50.5592 27.4371 50.7239C27.4731 50.8957 27.4803 50.9459 27.6101 50.9244C27.8626 50.8743 28.1727 50.6451 28.8867 49.5567C29.1319 49.1271 29.341 48.6115 29.817 47.8454C30.1632 47.3083 30.632 46.9288 30.7473 46.9073C30.8627 46.8859 31.0142 46.9646 31.0358 47.0792C31.0935 47.3871 30.9565 47.8382 30.8699 48.2106L30.6752 49.0483C30.5959 49.3849 30.43 50.0938 30.4372 50.1296C30.4661 50.2656 30.5166 50.3229 30.6031 50.3086C30.7618 50.1797 30.9781 50.015 31.1512 49.7859L31.9013 48.8836C32.4205 48.2535 32.7739 47.2224 33.3797 47.1007C33.4951 47.0792 33.56 47.1222 33.5816 47.2367C33.6393 47.5446 33.4735 47.9599 33.3653 48.318L33.1056 49.1701C32.9975 49.4994 32.9109 49.8217 32.9181 49.8503C32.947 49.9864 32.9975 50.0436 33.0768 50.0293C33.1489 50.015 33.4518 49.7501 33.834 49.435C34.2091 49.1056 34.4254 48.9481 34.4543 48.9409C34.5552 48.9123 34.6202 48.9481 34.649 49.0913C34.6778 49.2488 34.4326 49.5711 33.899 50.0365C33.3581 50.5019 33.185 50.7167 32.8965 50.774C32.6224 50.8313 32.3917 50.5878 32.3268 50.373C32.2186 49.9792 32.4277 49.3849 32.6729 48.7261C32.3268 49.1557 32.0527 49.6069 31.4541 50.2585C30.9709 50.7812 30.6969 51.0031 30.4084 51.0533C30.1343 51.1106 29.8963 50.8671 29.8386 50.6523C29.7954 50.4733 29.9324 49.6713 29.9901 49.3634C30.0406 49.1199 30.1992 48.5328 30.3002 48.1533L29.3771 49.836C28.728 51.0175 28.1799 51.3683 27.5669 51.5044C27.163 51.5903 26.9034 51.3182 26.8601 51.0819C26.8024 50.7883 26.9611 49.8646 27.3649 49.7859C27.5597 49.7286 27.6318 49.9362 27.6246 50.0365Z" fill="black" stroke="black" stroke-width="0.35" stroke-miterlimit="10" stroke-linecap="round" stroke-linejoin="round"/>
<path d="M38.6366 48.8192C38.2904 49.2345 37.9514 49.478 37.6197 49.5424C37.3456 49.5997 37.1365 49.5568 36.9922 49.435C36.8913 49.3348 36.8264 49.2059 36.7975 49.0484C36.7542 48.8264 36.7759 48.5042 36.8191 48.2178L35.9249 49.3133C35.5354 49.7501 35.1892 49.9936 34.9008 50.0508C34.6123 50.1081 34.3455 49.9076 34.3022 49.7071C34.2733 49.5496 34.3887 49.2059 34.6484 48.6832C34.908 48.1605 35.2181 47.6736 35.5571 47.2081C35.8816 46.7857 36.1052 46.4992 36.235 46.3417C36.6893 45.8047 37.0643 45.4968 37.3384 45.4466C37.5403 45.4037 37.7351 45.4323 37.9081 45.5326C38.0524 45.418 38.1894 45.2175 38.2615 45.2032C38.4346 45.1674 38.5356 45.2461 38.5789 45.4466C38.5933 45.5182 38.5644 45.64 38.4923 45.7689L38.211 46.2486C37.937 46.7069 37.7495 47.0936 37.6197 47.3943C37.4177 47.8741 37.3456 48.2607 37.4105 48.5686C37.4466 48.7405 37.5115 48.855 37.6413 48.8336C37.9298 48.7763 38.2399 48.5185 38.5789 48.0602L39.1342 47.2941C39.163 47.2582 39.1919 47.2368 39.2207 47.2296C39.3361 47.2081 39.4154 47.2654 39.4443 47.4158C39.4659 47.5447 39.4443 47.6378 39.3433 47.7881C38.9034 48.4397 38.6726 48.7834 38.6366 48.8192ZM37.1653 46.4849C37.1509 46.4205 37.122 46.3918 37.0716 46.4062C36.8696 46.4491 36.4874 46.8716 35.9465 47.6807C35.3984 48.4899 35.1676 48.9266 35.2614 49.0126C35.3551 49.0913 35.6797 48.7763 36.235 48.0889C36.7903 47.3871 37.1004 46.9289 37.1581 46.7355C37.1797 46.6496 37.187 46.5708 37.1653 46.4849Z" fill="black" stroke="black" stroke-width="0.35" stroke-miterlimit="10" stroke-linecap="round" stroke-linejoin="round"/>
<path d="M38.6366 48.8192C38.2904 49.2345 37.9514 49.478 37.6197 49.5424C37.3456 49.5997 37.1365 49.5568 36.9922 49.435C36.8913 49.3348 36.8264 49.2059 36.7975 49.0484C36.7542 48.8264 36.7759 48.5042 36.8191 48.2178L35.9249 49.3133C35.5354 49.7501 35.1892 49.9936 34.9008 50.0508C34.6123 50.1081 34.3455 49.9076 34.3022 49.7071C34.2733 49.5496 34.3887 49.2059 34.6484 48.6832C34.908 48.1605 35.2181 47.6736 35.5571 47.2081C35.8816 46.7857 36.1052 46.4992 36.235 46.3417C36.6893 45.8047 37.0643 45.4968 37.3384 45.4466C37.5403 45.4037 37.7351 45.4323 37.9081 45.5326C38.0524 45.418 38.1894 45.2175 38.2615 45.2032C38.4346 45.1674 38.5356 45.2461 38.5789 45.4466C38.5933 45.5182 38.5644 45.64 38.4923 45.7689L38.211 46.2486C37.937 46.7069 37.7495 47.0936 37.6197 47.3943C37.4177 47.8741 37.3456 48.2607 37.4105 48.5686C37.4466 48.7405 37.5115 48.855 37.6413 48.8336C37.9298 48.7763 38.2399 48.5185 38.5789 48.0602L39.1342 47.2941C39.163 47.2582 39.1919 47.2368 39.2207 47.2296C39.3361 47.2081 39.4154 47.2654 39.4443 47.4158C39.4659 47.5447 39.4443 47.6378 39.3433 47.7881C38.9034 48.4397 38.6726 48.7834 38.6366 48.8192ZM37.1653 46.4849C37.1509 46.4205 37.122 46.3918 37.0716 46.4062C36.8696 46.4491 36.4874 46.8716 35.9465 47.6807C35.3984 48.4899 35.1676 48.9266 35.2614 49.0126C35.3551 49.0913 35.6797 48.7763 36.235 48.0889C36.7903 47.3871 37.1004 46.9289 37.1581 46.7355C37.1797 46.6496 37.187 46.5708 37.1653 46.4849Z" fill="black" stroke="black" stroke-width="0.35" stroke-miterlimit="10" stroke-linecap="round" stroke-linejoin="round"/>
<path d="M42.8128 45.8401L41.4354 47.0789C41.6878 47.394 41.9979 47.6804 42.3513 47.9453C42.6253 48.1458 42.7624 48.2819 42.784 48.375C42.8128 48.5325 42.7696 48.6184 42.6398 48.6471C42.3946 48.6972 42.1277 48.6256 41.8392 48.4537C41.5075 48.2461 41.219 47.9382 40.9522 47.5658C39.9569 48.6041 39.4377 49.134 39.2357 49.1769C38.9472 49.2342 38.8823 49.0838 38.8174 48.7545C38.7669 48.511 38.9112 47.9596 39.2501 47.0789C39.6901 45.8974 40.267 44.7875 40.5411 44.3866C40.8224 43.9784 41.0099 43.7493 41.1613 43.7206C41.2983 43.692 41.3632 43.7922 41.3993 43.9927C41.4137 44.0429 41.3921 44.2792 41.0964 44.7517C40.6925 45.4034 40.2454 46.1337 39.791 47.3582L39.5675 48.0169C39.8415 47.8236 40.1805 47.5229 40.5771 47.1505C40.9017 46.8355 41.1541 46.5992 41.32 46.4416L42.885 44.9737C43.397 44.4868 43.6855 44.2362 43.7648 44.2219C43.9235 44.1932 44.01 44.229 44.0317 44.3221C44.0894 44.6372 43.8153 44.9451 42.8128 45.8401Z" fill="black" stroke="black" stroke-width="0.35" stroke-miterlimit="10" stroke-linecap="round" stroke-linejoin="round"/>
<path d="M42.8128 45.8401L41.4354 47.0789C41.6878 47.394 41.9979 47.6804 42.3513 47.9453C42.6253 48.1458 42.7624 48.2819 42.784 48.375C42.8128 48.5325 42.7696 48.6184 42.6398 48.6471C42.3946 48.6972 42.1277 48.6256 41.8392 48.4537C41.5075 48.2461 41.219 47.9382 40.9522 47.5658C39.9569 48.6041 39.4377 49.134 39.2357 49.1769C38.9472 49.2342 38.8823 49.0838 38.8174 48.7545C38.7669 48.511 38.9112 47.9596 39.2501 47.0789C39.6901 45.8974 40.267 44.7875 40.5411 44.3866C40.8224 43.9784 41.0099 43.7493 41.1613 43.7206C41.2983 43.692 41.3632 43.7922 41.3993 43.9927C41.4137 44.0429 41.3921 44.2792 41.0964 44.7517C40.6925 45.4034 40.2454 46.1337 39.791 47.3582L39.5675 48.0169C39.8415 47.8236 40.1805 47.5229 40.5771 47.1505C40.9017 46.8355 41.1541 46.5992 41.32 46.4416L42.885 44.9737C43.397 44.4868 43.6855 44.2362 43.7648 44.2219C43.9235 44.1932 44.01 44.229 44.0317 44.3221C44.0894 44.6372 43.8153 44.9451 42.8128 45.8401Z" fill="black" stroke="black" stroke-width="0.35" stroke-miterlimit="10" stroke-linecap="round" stroke-linejoin="round"/>
<path d="M47.1546 45.1241C46.9454 45.7542 46.8012 46.2483 46.6858 46.5992C46.4838 47.2078 46.2963 47.6947 46.1088 48.0957C45.8348 48.7187 45.4886 49.3058 45.0631 49.8357C44.4284 50.6592 43.7722 51.189 43.0798 51.3752C42.7553 51.4683 41.9187 51.9337 41.8466 51.6473C41.7889 51.4826 40.8369 50.4085 41.0965 50.3369C41.2191 50.3011 41.3345 50.3226 41.4211 50.4229C41.5076 50.516 41.7312 49.714 41.8682 49.6639C42.2865 49.5493 42.8635 49.5779 43.4548 48.776C44.1255 47.8737 45.7987 47.5444 45.9862 46.6779L45.9502 46.6493C45.5751 47.172 45.3299 47.4942 45.229 47.6016C44.9044 47.9597 44.5943 48.1745 44.2698 48.2747C44.0101 48.3463 43.8154 48.3392 43.6856 48.2318C43.6135 48.1458 43.5342 48.0169 43.4837 47.8451C43.3755 47.4584 43.426 46.9214 43.6423 46.2555C43.8299 45.6898 44.0751 45.1527 44.3924 44.6157C44.7313 44.0858 44.9621 43.8137 45.1208 43.7923C45.2867 43.7851 45.3804 43.8281 45.4165 43.9498C45.4453 44.0357 45.4093 44.136 45.3371 44.272L44.8539 45.0453C44.6664 45.389 44.4789 45.833 44.2914 46.3844C44.1111 46.9357 44.0462 47.2794 44.0895 47.4083C44.1328 47.573 44.1688 47.5802 44.3635 47.5157C44.4789 47.4799 44.6592 47.3295 44.9044 47.0574C44.9693 46.993 45.3876 46.4703 46.1593 45.475C46.5271 44.3937 46.9598 43.649 47.2483 43.5703C47.5007 43.4987 47.6161 43.6276 47.6666 43.8281C47.6954 43.9283 47.5224 44.3579 47.1546 45.1241Z" fill="black" stroke="black" stroke-width="0.35" stroke-miterlimit="10" stroke-linecap="round" stroke-linejoin="round"/>
<path d="M47.1546 45.1241C46.9454 45.7542 46.8012 46.2483 46.6858 46.5992C46.4838 47.2078 46.2963 47.6947 46.1088 48.0957C45.8348 48.7187 45.4886 49.3058 45.0631 49.8357C44.4284 50.6592 43.7722 51.189 43.0798 51.3752C42.7553 51.4683 41.9187 51.9337 41.8466 51.6473C41.7889 51.4826 40.8369 50.4085 41.0965 50.3369C41.2191 50.3011 41.3345 50.3226 41.4211 50.4229C41.5076 50.516 41.7312 49.714 41.8682 49.6639C42.2865 49.5493 42.8635 49.5779 43.4548 48.776C44.1255 47.8737 45.7987 47.5444 45.9862 46.6779L45.9502 46.6493C45.5751 47.172 45.3299 47.4942 45.229 47.6016C44.9044 47.9597 44.5943 48.1745 44.2698 48.2747C44.0101 48.3463 43.8154 48.3392 43.6856 48.2318C43.6135 48.1458 43.5342 48.0169 43.4837 47.8451C43.3755 47.4584 43.426 46.9214 43.6423 46.2555C43.8299 45.6898 44.0751 45.1527 44.3924 44.6157C44.7313 44.0858 44.9621 43.8137 45.1208 43.7923C45.2867 43.7851 45.3804 43.8281 45.4165 43.9498C45.4453 44.0357 45.4093 44.136 45.3371 44.272L44.8539 45.0453C44.6664 45.389 44.4789 45.833 44.2914 46.3844C44.1111 46.9357 44.0462 47.2794 44.0895 47.4083C44.1328 47.573 44.1688 47.5802 44.3635 47.5157C44.4789 47.4799 44.6592 47.3295 44.9044 47.0574C44.9693 46.993 45.3876 46.4703 46.1593 45.475C46.5271 44.3937 46.9598 43.649 47.2483 43.5703C47.5007 43.4987 47.6161 43.6276 47.6666 43.8281C47.6954 43.9283 47.5224 44.3579 47.1546 45.1241Z" fill="black" stroke="black" stroke-width="0.35" stroke-miterlimit="10" stroke-linecap="round" stroke-linejoin="round"/>
<path d="M49.0578 43.6277C49.0578 43.7494 48.9857 43.8711 48.8991 44.1003L48.7549 44.5442C48.6106 45.0311 48.4015 45.4464 48.3294 45.9692C48.2861 46.1339 48.2212 46.4776 48.2645 46.5993C48.3077 46.6924 48.3149 46.7353 48.4231 46.6709C48.4808 46.6351 49.0001 46.1052 49.1732 45.919C49.6419 45.3963 50.1828 44.845 50.3776 44.3652C50.4713 44.1719 50.5506 44 50.6228 43.821C50.6877 43.6563 50.7742 43.4845 50.8608 43.2983C50.9329 43.2267 51.005 43.1909 51.0843 43.1909C51.1709 43.1837 51.2718 43.241 51.3223 43.3413C51.4305 43.6778 51.2935 43.9857 51.1781 44.2721L51.0194 44.6301C50.8896 44.9882 50.5939 45.8761 50.6444 46.0837C50.6877 46.2413 50.7526 46.3558 50.8391 46.3343C51.0338 46.2627 51.4882 45.8904 51.6973 45.6971C51.7623 45.6183 51.8704 45.5109 51.9353 45.4393C52.1084 45.2531 52.2815 45.0669 52.3392 45.0669C52.469 45.0669 52.5916 45.0598 52.6061 45.2459C52.6205 45.5252 52.3608 45.7901 52.2959 45.8474L51.957 46.2126C51.6613 46.499 51.1997 46.8642 50.8824 46.9287C50.392 47.0218 50.1756 46.8141 50.0747 46.5205C50.0386 46.3988 49.9737 46.1195 49.9665 45.9405C49.7357 46.1697 49.6708 46.2842 49.4112 46.542C49.2597 46.7282 48.452 47.5087 48.2717 47.5445C47.9976 47.6018 47.6659 47.3798 47.5865 46.8213C47.4495 46.1983 48.0193 44.5299 48.1563 44.1862C48.2717 43.8855 48.488 43.42 48.7188 43.3842C48.8342 43.3556 49.0794 43.3985 49.0578 43.6277ZM50.291 42.5321C49.6996 42.661 48.9857 42.4032 48.928 42.1168C48.8847 41.8877 48.9784 41.8089 49.1804 41.7731C49.2309 41.7659 49.3102 41.8018 49.4184 41.859C49.6275 41.9521 49.9232 42.1097 50.2045 42.0309C50.6011 41.9235 50.9762 41.4724 51.2358 41.1501C51.3656 40.9783 51.4738 40.8494 51.5387 40.8351C51.7118 40.7993 51.8055 40.785 51.8416 41.0427C51.8632 41.2361 51.3151 42.3245 50.291 42.5321Z" fill="black" stroke="black" stroke-width="0.35" stroke-miterlimit="10" stroke-linecap="round" stroke-linejoin="round"/>
<path d="M49.0578 43.6277C49.0578 43.7494 48.9857 43.8711 48.8991 44.1003L48.7549 44.5442C48.6106 45.0311 48.4015 45.4464 48.3294 45.9692C48.2861 46.1339 48.2212 46.4776 48.2645 46.5993C48.3077 46.6924 48.3149 46.7353 48.4231 46.6709C48.4808 46.6351 49.0001 46.1052 49.1732 45.919C49.6419 45.3963 50.1828 44.845 50.3776 44.3652C50.4713 44.1719 50.5506 44 50.6228 43.821C50.6877 43.6563 50.7742 43.4845 50.8608 43.2983C50.9329 43.2267 51.005 43.1909 51.0843 43.1909C51.1709 43.1837 51.2718 43.241 51.3223 43.3413C51.4305 43.6778 51.2935 43.9857 51.1781 44.2721L51.0194 44.6301C50.8896 44.9882 50.5939 45.8761 50.6444 46.0837C50.6877 46.2413 50.7526 46.3558 50.8391 46.3343C51.0338 46.2627 51.4882 45.8904 51.6973 45.6971C51.7623 45.6183 51.8704 45.5109 51.9353 45.4393C52.1084 45.2531 52.2815 45.0669 52.3392 45.0669C52.469 45.0669 52.5916 45.0598 52.6061 45.2459C52.6205 45.5252 52.3608 45.7901 52.2959 45.8474L51.957 46.2126C51.6613 46.499 51.1997 46.8642 50.8824 46.9287C50.392 47.0218 50.1756 46.8141 50.0747 46.5205C50.0386 46.3988 49.9737 46.1195 49.9665 45.9405C49.7357 46.1697 49.6708 46.2842 49.4112 46.542C49.2597 46.7282 48.452 47.5087 48.2717 47.5445C47.9976 47.6018 47.6659 47.3798 47.5865 46.8213C47.4495 46.1983 48.0193 44.5299 48.1563 44.1862C48.2717 43.8855 48.488 43.42 48.7188 43.3842C48.8342 43.3556 49.0794 43.3985 49.0578 43.6277ZM50.291 42.5321C49.6996 42.661 48.9857 42.4032 48.928 42.1168C48.8847 41.8877 48.9784 41.8089 49.1804 41.7731C49.2309 41.7659 49.3102 41.8018 49.4184 41.859C49.6275 41.9521 49.9232 42.1097 50.2045 42.0309C50.6011 41.9235 50.9762 41.4724 51.2358 41.1501C51.3656 40.9783 51.4738 40.8494 51.5387 40.8351C51.7118 40.7993 51.8055 40.785 51.8416 41.0427C51.8632 41.2361 51.3151 42.3245 50.291 42.5321Z" fill="black" stroke="black" stroke-width="0.35" stroke-miterlimit="10" stroke-linecap="round" stroke-linejoin="round"/>
<path d="M53.9335 46.2412C53.6883 46.2914 53.4214 46.1124 53.3709 45.8689C53.3349 45.697 53.5657 45.4822 53.7892 45.4321C54.0416 45.382 54.359 45.5252 54.4095 45.7687C54.4527 45.9835 54.2003 46.1911 53.9335 46.2412ZM55.4408 40.2622C55.3614 40.742 55.2388 41.2146 55.1018 41.6657C54.871 42.4032 54.7196 42.8686 54.6474 43.0477C54.4455 43.5346 54.258 43.8067 54.0777 43.8425C53.919 43.8711 53.8325 43.7709 53.7964 43.6348C53.7748 43.5417 53.8613 43.2267 54.0344 42.7183C54.3229 41.8948 54.496 41.4222 54.5248 41.2933C54.5681 41.1645 54.6619 40.699 54.8133 39.897C54.9143 39.3815 55.0225 39.1022 55.1451 39.0664C55.2749 39.0091 55.484 39.0879 55.5201 39.3027C55.5489 39.4603 55.5201 39.7753 55.4408 40.2622Z" fill="black" stroke="black" stroke-width="0.35" stroke-miterlimit="10" stroke-linecap="round" stroke-linejoin="round"/>
<path d="M53.9335 46.2412C53.6883 46.2914 53.4214 46.1124 53.3709 45.8689C53.3349 45.697 53.5657 45.4822 53.7892 45.4321C54.0416 45.382 54.359 45.5252 54.4095 45.7687C54.4527 45.9835 54.2003 46.1911 53.9335 46.2412ZM55.4408 40.2622C55.3614 40.742 55.2388 41.2146 55.1018 41.6657C54.871 42.4032 54.7196 42.8686 54.6474 43.0477C54.4455 43.5346 54.258 43.8067 54.0777 43.8425C53.919 43.8711 53.8325 43.7709 53.7964 43.6348C53.7748 43.5417 53.8613 43.2267 54.0344 42.7183C54.3229 41.8948 54.496 41.4222 54.5248 41.2933C54.5681 41.1645 54.6619 40.699 54.8133 39.897C54.9143 39.3815 55.0225 39.1022 55.1451 39.0664C55.2749 39.0091 55.484 39.0879 55.5201 39.3027C55.5489 39.4603 55.5201 39.7753 55.4408 40.2622Z" fill="black" stroke="black" stroke-width="0.35" stroke-miterlimit="10" stroke-linecap="round" stroke-linejoin="round"/>
<path d="M17.2389 50.4012L16.8423 51.0027C17.0586 51.0886 17.5202 51.5111 17.549 51.9264C17.7798 51.7975 18.8832 51.2891 18.9481 51.282C19.1068 51.2533 19.1861 51.418 19.215 51.5827C19.2222 51.6042 17.9962 52.2916 17.5851 52.5637C17.275 53.559 16.9865 54.0603 16.3807 55.0484C15.7749 56.0437 14.4479 57.3827 13.8998 57.5116C13.4238 57.6262 13.1498 57.2825 13.0993 56.9889C12.7603 54.9052 15.1979 53.4803 16.9 52.3059C16.9144 52.1627 16.835 51.9694 16.8134 51.862C16.8062 51.8333 16.6043 51.6042 16.3663 51.4968C16.1932 51.4109 16.1066 51.3607 16.085 51.2462C16.0778 51.1459 16.2581 50.9598 16.5682 50.4943C16.8062 50.1435 17.0442 49.678 17.0009 49.3773C16.9721 49.2484 16.8423 49.0765 16.7124 49.1052C16.4961 49.1482 16.3086 49.2627 16.0129 49.5277C15.5441 49.9501 15.1402 50.3583 14.9527 50.3798C14.7364 50.4084 14.621 50.3368 14.5849 50.1363C14.5633 49.8785 15.4287 49.2126 15.6451 49.0264C16.0057 48.7257 16.5538 48.4751 16.6908 48.4464C17.1307 48.3605 17.513 48.7543 17.5707 49.2198C17.5995 49.6279 17.3976 50.1578 17.2389 50.4012ZM16.8134 53.022C16.2725 53.3657 13.4743 55.1916 13.7267 56.7454C13.7411 56.8743 13.7916 56.8528 13.907 56.8314C14.1017 56.7956 15.2124 55.7286 15.7172 55.0269C16.2292 54.3037 16.6043 53.5089 16.8134 53.022Z" fill="white"/>
<path d="M23.0301 51.3179C22.6839 51.7332 22.345 51.9767 22.0132 52.0411C21.7392 52.0984 21.53 52.0626 21.3858 51.9337C21.2848 51.8335 21.2199 51.7046 21.1911 51.5471C21.1478 51.3251 21.1694 51.0029 21.2127 50.7236L20.3184 51.8192C19.929 52.256 19.5828 52.4994 19.2943 52.5567C19.0058 52.614 18.739 52.4135 18.6957 52.213C18.6669 52.0555 18.7823 51.7118 19.0419 51.189C19.3015 50.6663 19.6117 50.1794 19.9506 49.714C20.2751 49.2915 20.4987 49.0051 20.6285 48.8476C21.0829 48.3105 21.4579 48.0026 21.732 47.9525C21.9339 47.9095 22.1286 47.9382 22.3017 48.0384C22.4459 47.9239 22.583 47.7234 22.6551 47.709C22.8282 47.6732 22.9291 47.752 22.9724 47.9525C22.9868 48.0241 22.958 48.1458 22.8859 48.2747L22.6046 48.7616C22.3306 49.2199 22.143 49.6066 22.0132 49.9073C21.8113 50.3871 21.7392 50.7737 21.8041 51.0816C21.8401 51.2535 21.905 51.3681 22.0349 51.3466C22.3233 51.2893 22.6335 51.0315 22.9724 50.5732L23.5277 49.8071C23.5566 49.7713 23.5854 49.7498 23.6143 49.7426C23.7297 49.7211 23.809 49.7784 23.8378 49.9288C23.8595 50.0577 23.8378 50.1508 23.7369 50.3011C23.297 50.9384 23.0662 51.2821 23.0301 51.3179ZM21.5661 48.9836C21.5517 48.9192 21.5228 48.8905 21.4723 48.9048C21.2704 48.9478 20.8882 49.3703 20.3473 50.1794C19.7992 50.9886 19.5684 51.4325 19.6621 51.5113C19.7559 51.59 20.0804 51.275 20.6357 50.5876C21.1911 49.8858 21.5012 49.4276 21.5589 49.2342C21.5733 49.1483 21.5805 49.0695 21.5661 48.9836Z" fill="white"/>
<path d="M26.4986 49.8928C26.0586 50.3654 25.6908 50.7234 25.3951 50.9669C24.9264 51.3321 24.4937 51.5612 24.1114 51.6328C23.6859 51.7187 23.2604 51.4824 23.1739 51.0242C23.1306 50.8022 23.2171 50.4155 23.4407 49.8713C23.6859 49.2842 23.9816 48.7973 24.3278 48.4034C24.5874 48.1027 24.8903 47.8306 25.2148 47.5943C25.5538 47.3437 25.8134 47.2005 26.0009 47.1647C26.376 47.0931 26.4553 47.1647 26.4986 47.3723C26.5202 47.4654 26.4914 47.5585 26.4048 47.6301C26.2606 47.7805 25.7557 47.9308 25.3302 48.2817C25.0778 48.4965 24.8182 48.7686 24.5874 49.098C24.3855 49.3701 24.2196 49.6852 24.0681 50.036C23.9167 50.3869 23.8518 50.6232 23.8879 50.7879C23.9095 50.9024 24.0105 50.9597 24.1763 50.9382C24.5153 50.8738 24.9336 50.6232 25.4096 50.1936C25.5682 50.0503 25.8062 49.8069 26.1524 49.4703C26.3255 49.2913 26.5635 49.0407 26.6644 49.0264C26.8015 48.9977 26.888 49.0407 26.9097 49.1338C26.9385 49.3486 26.787 49.5849 26.4986 49.8928Z" fill="white"/>
<path d="M26.8013 49.6351C26.8013 49.7354 26.585 50.1578 26.6138 50.3225C26.6499 50.4944 26.6571 50.5445 26.7869 50.523C27.0393 50.4729 27.3494 50.2438 28.0634 49.1554C28.3086 48.7257 28.5178 48.2102 28.9938 47.444C29.3399 46.907 29.8087 46.5275 29.9241 46.506C30.0395 46.4845 30.1909 46.5633 30.2126 46.6778C30.2703 46.9857 30.1332 47.4368 30.0467 47.8092L29.852 48.647C29.7726 48.9835 29.6068 49.6924 29.614 49.7282C29.6428 49.8642 29.6933 49.9215 29.7799 49.9072C29.9385 49.7783 30.1549 49.6136 30.328 49.3845L31.078 48.4823C31.5973 47.8522 31.9507 46.821 32.5565 46.6993C32.6718 46.6778 32.7368 46.7208 32.7584 46.8354C32.8161 47.1433 32.6502 47.5586 32.542 47.9166L32.2824 48.7687C32.1742 49.0981 32.0877 49.4203 32.0949 49.4489C32.1237 49.585 32.1742 49.6423 32.2536 49.628C32.3257 49.6136 32.6286 49.3487 33.0108 49.0336C33.3858 48.7042 33.6022 48.5467 33.631 48.5396C33.732 48.5109 33.7969 48.5467 33.8258 48.6899C33.8546 48.8475 33.6094 49.1697 33.0757 49.6351C32.5348 50.1005 32.3617 50.3154 32.0733 50.3726C31.7992 50.4299 31.5684 50.1865 31.5035 49.9717C31.3953 49.5778 31.6045 48.9835 31.8497 48.3247C31.5035 48.7544 31.2295 49.2055 30.6309 49.8571C30.1477 50.3798 29.8736 50.6018 29.5851 50.6519C29.3111 50.7092 29.0731 50.4657 29.0154 50.2509C28.9721 50.0719 29.1091 49.2699 29.1668 48.962C29.2173 48.7186 29.376 48.1314 29.477 47.7519L28.5538 49.4346C27.9048 50.6161 27.3566 50.967 26.7436 51.103C26.3398 51.1889 26.0801 50.9168 26.0369 50.6805C25.9792 50.387 26.1378 49.4633 26.5417 49.3845C26.7292 49.3344 26.8013 49.5349 26.8013 49.6351Z" fill="white"/>
<path d="M37.8143 48.4252C37.4681 48.8405 37.1292 49.084 36.7974 49.1484C36.5233 49.2057 36.3142 49.1627 36.17 49.041C36.069 48.9408 36.0041 48.8119 35.9752 48.6543C35.932 48.4324 35.9536 48.1101 35.9969 47.8237L35.1026 48.9193C34.7132 49.3561 34.367 49.5995 34.0785 49.6568C33.79 49.7141 33.5232 49.5136 33.4799 49.3131C33.4511 49.1556 33.5665 48.8119 33.8261 48.2891C34.0857 47.7664 34.3958 47.2795 34.7348 46.8141C35.0593 46.3916 35.2829 46.1052 35.4127 45.9477C35.8671 45.4106 36.2421 45.1027 36.5161 45.0526C36.7181 45.0096 36.9128 45.0383 37.0859 45.1385C37.2301 45.024 37.3671 44.8235 37.4393 44.8091C37.6124 44.7733 37.7133 44.8521 37.7566 45.0526C37.771 45.1242 37.7422 45.2459 37.67 45.3748L37.3888 45.8546C37.1147 46.3128 36.9272 46.6995 36.7974 47.0003C36.5955 47.48 36.5233 47.8667 36.5883 48.1746C36.6243 48.3464 36.6892 48.461 36.819 48.4395C37.1075 48.3822 37.4176 48.1245 37.7566 47.6662L38.3119 46.9C38.3408 46.8642 38.3696 46.8427 38.3985 46.8356C38.5138 46.8141 38.5932 46.8714 38.622 47.0217C38.6437 47.1506 38.622 47.2437 38.5211 47.3941C38.0811 48.0457 37.8503 48.3822 37.8143 48.4252ZM36.3431 46.0909C36.3286 46.0264 36.2998 45.9978 36.2493 46.0121C36.0474 46.0551 35.6651 46.4775 35.1242 47.2867C34.5761 48.0958 34.3453 48.5326 34.4391 48.6185C34.5329 48.6973 34.8574 48.3822 35.4127 47.6948C35.968 46.9931 36.2781 46.5348 36.3358 46.3415C36.3503 46.2484 36.3575 46.1768 36.3431 46.0909Z" fill="white"/>
<path d="M41.9828 45.4461L40.6053 46.6849C40.8577 46.9999 41.1678 47.2863 41.5212 47.5513C41.7953 47.7518 41.9323 47.8878 41.9539 47.9809C41.9828 48.1384 41.9395 48.2244 41.8097 48.253C41.5645 48.3031 41.2976 48.2315 41.0092 48.0597C40.6774 47.852 40.3889 47.5441 40.1221 47.1718C39.1268 48.2101 38.6076 48.7399 38.4056 48.7829C38.1172 48.8402 38.0523 48.6898 37.9874 48.3604C37.9369 48.117 38.0811 47.5656 38.4201 46.6849C38.86 45.5034 39.437 44.3935 39.711 43.9925C39.9923 43.5844 40.1798 43.3552 40.3312 43.3266C40.4683 43.2979 40.5332 43.3982 40.5692 43.5987C40.5837 43.6488 40.562 43.8851 40.2663 44.3577C39.8625 45.0093 39.4153 45.7397 38.961 46.9641L38.7374 47.6229C39.0115 47.4296 39.3504 47.1288 39.7471 46.7565C40.0716 46.4414 40.324 46.2051 40.4899 46.0476L42.0549 44.5797C42.5669 44.0928 42.8554 43.8421 42.9347 43.8278C43.0934 43.7992 43.18 43.835 43.2016 43.9281C43.2593 44.2431 42.9852 44.5439 41.9828 45.4461Z" fill="white"/>
<path d="M46.3244 44.7232C46.1153 45.3534 45.9711 45.8474 45.8557 46.1983C45.6537 46.8069 45.4662 47.2938 45.2787 47.6948C45.0047 48.3178 44.6585 48.905 44.233 49.4348C43.5983 50.2583 42.942 50.7882 42.2497 50.9743C41.9252 51.0674 41.5213 50.9314 41.442 50.645C41.3843 50.4803 41.4131 50.2225 41.6727 50.1509C41.7953 50.1151 41.9107 50.1366 41.9973 50.2368C42.0838 50.3299 42.1992 50.3585 42.3362 50.3156C42.7545 50.201 43.2594 49.7356 43.8508 48.9336C44.5215 48.0314 44.9542 47.1506 45.1489 46.2771L45.1128 46.2484C44.7378 46.7711 44.4926 47.0934 44.3916 47.2008C44.0671 47.5588 43.757 47.7736 43.4325 47.8738C43.1728 47.9455 42.9781 47.9383 42.8483 47.8309C42.7762 47.745 42.6968 47.6161 42.6464 47.4442C42.5382 47.0575 42.5887 46.5205 42.805 45.8546C42.9925 45.2889 43.2377 44.7519 43.5551 44.2148C43.894 43.685 44.1248 43.4129 44.2835 43.3914C44.4493 43.3842 44.5431 43.4272 44.5792 43.5489C44.608 43.6348 44.5719 43.7351 44.4998 43.8711L44.0166 44.6445C43.8291 44.9882 43.6416 45.4321 43.4541 45.9835C43.2738 46.5348 43.2089 46.8785 43.2522 47.0074C43.2954 47.1721 43.3315 47.1793 43.5262 47.1148C43.6416 47.079 43.8219 46.9287 44.0671 46.6566C44.132 46.5921 44.5503 46.0694 45.322 45.0741C45.6898 43.9929 46.1225 43.2482 46.411 43.1694C46.6634 43.0978 46.7788 43.2267 46.8293 43.4272C46.8653 43.5346 46.6923 43.9642 46.3244 44.7232Z" fill="white"/>
<path d="M48.2287 43.2336C48.2287 43.3554 48.1566 43.4771 48.07 43.7062L47.9258 44.1502C47.7815 44.6371 47.5724 45.0524 47.5003 45.5751C47.457 45.7398 47.3921 46.0835 47.4354 46.2052C47.4786 46.2983 47.4858 46.3413 47.594 46.2768C47.6517 46.241 48.171 45.7112 48.3441 45.525C48.8128 45.0023 49.3537 44.4509 49.5485 43.9712C49.6422 43.7778 49.7215 43.606 49.7937 43.427C49.8586 43.2623 49.9451 43.0904 50.0317 42.9043C50.1038 42.8326 50.1759 42.7968 50.2552 42.7968C50.3418 42.7897 50.4427 42.847 50.4932 42.9472C50.6014 43.2838 50.4644 43.5917 50.349 43.8781L50.1903 44.2361C50.0605 44.5941 49.7648 45.482 49.8153 45.6897C49.8586 45.8472 49.9235 45.9618 50.01 45.9403C50.2047 45.8687 50.6591 45.4964 50.8682 45.303C50.9331 45.2243 51.0413 45.1168 51.1062 45.0452C51.2793 44.8591 51.4524 44.6729 51.5101 44.6729C51.6399 44.6729 51.7625 44.6657 51.7769 44.8519C51.7914 45.1312 51.5317 45.3961 51.4668 45.4534L51.1279 45.8186C50.8322 46.105 50.3706 46.4702 50.0533 46.5346C49.5629 46.6277 49.3465 46.4201 49.2456 46.1265C49.2095 46.0047 49.1446 45.7255 49.1374 45.5465C48.9066 45.7756 48.8417 45.8902 48.5821 46.148C48.4306 46.3341 47.6229 47.1146 47.4426 47.1504C47.1685 47.2077 46.8368 46.9857 46.7574 46.4272C46.6204 45.8043 47.1902 44.1359 47.3272 43.7922C47.4426 43.4914 47.6589 43.026 47.8897 42.9902C48.0123 42.9544 48.2503 42.9973 48.2287 43.2336ZM49.4619 42.1381C48.8705 42.267 48.1566 42.0092 48.0989 41.7228C48.0556 41.4936 48.1493 41.4149 48.3513 41.3791C48.4018 41.3719 48.4811 41.4077 48.5893 41.465C48.7984 41.5581 49.0941 41.7156 49.3754 41.6368C49.772 41.5294 50.147 41.0783 50.4067 40.7561C50.5365 40.5843 50.6447 40.4554 50.7096 40.441C50.8827 40.4052 50.9764 40.3909 51.0125 40.6487C51.0413 40.842 50.4932 41.9233 49.4619 42.1381Z" fill="white"/>
<path d="M53.1034 45.8472C52.8582 45.8973 52.5913 45.7183 52.5409 45.4749C52.5048 45.303 52.7356 45.0882 52.9591 45.0381C53.2116 44.9879 53.5289 45.1312 53.5794 45.3746C53.6299 45.5894 53.3702 45.7899 53.1034 45.8472ZM54.6107 39.8682C54.5314 40.3479 54.4087 40.8205 54.2717 41.2716C54.0409 42.0092 53.8895 42.4746 53.8174 42.6536C53.6154 43.1405 53.4279 43.4126 53.2476 43.4484C53.089 43.4771 53.0024 43.3768 52.9664 43.2408C52.9447 43.1477 53.0313 42.8326 53.2044 42.3242C53.4928 41.5008 53.6659 41.0282 53.6948 40.8993C53.738 40.7704 53.8318 40.305 53.9832 39.503C54.0842 38.9875 54.1924 38.7082 54.315 38.6724C54.4448 38.6151 54.654 38.6939 54.69 38.9087C54.7189 39.0662 54.69 39.3741 54.6107 39.8682Z" fill="white"/>
</g>
<defs>
<clipPath id="clip0_2_1634">
<rect width="55.5319" height="58" fill="white" transform="translate(0.824219 0.5)"/>
</clipPath>
</defs>
</svg>
