<svg width="21" height="20" viewBox="0 0 21 20" fill="none" xmlns="http://www.w3.org/2000/svg">
<g id="Group 49390">
<path id="Vector" d="M17.3236 4.74539C17.3168 5.03225 17.2113 5.30798 17.0247 5.52598C16.8381 5.74398 16.582 5.89087 16.2996 5.94182C16.0172 5.99277 15.7259 5.94466 15.4749 5.80562C15.2239 5.66657 15.0287 5.44512 14.9221 5.17871C14.8155 4.9123 14.8042 4.61726 14.8901 4.34347C14.9759 4.06968 15.1537 3.83394 15.3933 3.67609C15.6329 3.51824 15.9197 3.44798 16.2052 3.47717C16.4906 3.50636 16.7572 3.63322 16.9599 3.8363C17.0784 3.95571 17.1716 4.09773 17.2341 4.2539C17.2966 4.41008 17.327 4.57722 17.3236 4.74539Z" fill="white"/>
<path id="Vector_2" d="M10.8236 5.9C11.7722 5.90031 12.6913 6.22951 13.4243 6.83149C14.1573 7.43347 14.659 8.271 14.8437 9.20137C15.0285 10.1317 14.885 11.0974 14.4376 11.9338C13.9902 12.7702 13.2666 13.4256 12.3902 13.7884C11.5138 14.1511 10.5387 14.1987 9.63104 13.9231C8.72342 13.6475 7.93943 13.0658 7.41266 12.277C6.88588 11.4881 6.64891 10.5411 6.74212 9.59712C6.83532 8.65317 7.25294 7.77074 7.92382 7.10018C8.30467 6.7195 8.75679 6.41758 9.25434 6.21165C9.7519 6.00572 10.2851 5.89982 10.8236 5.9Z" stroke="white" stroke-width="1.8"/>
<path id="Vector_3" d="M14.8882 0.96203L14.9094 0.963301L14.9307 0.963567C15.6548 0.972584 16.3715 1.10949 17.0479 1.36798L17.0479 1.368L17.0541 1.37033C17.5988 1.57386 18.0919 1.89498 18.4982 2.31083L18.5064 2.31921L18.5148 2.32738C18.9307 2.73141 19.2511 3.22331 19.4525 3.76709L19.454 3.77113C19.7097 4.45174 19.8471 5.17108 19.8602 5.89803L19.8606 5.91682L19.8617 5.93557C19.9234 6.96751 19.9237 7.2671 19.9237 10C19.9237 12.7329 19.9234 13.0325 19.8617 14.0644L19.8606 14.0832L19.8602 14.102C19.8472 14.8275 19.7103 15.5454 19.4555 16.2248C19.2435 16.7712 18.92 17.2674 18.5056 17.6819C18.0912 18.0963 17.5949 18.4198 17.0486 18.6318C16.3692 18.8866 15.6512 19.0234 14.9257 19.0365L14.9069 19.0368L14.8882 19.038C13.8562 19.0997 13.5566 19.1 10.8237 19.1C8.09083 19.1 7.79124 19.0997 6.7593 19.038L6.74055 19.0368L6.72176 19.0365C5.99481 19.0234 5.27547 18.886 4.59487 18.6302L4.59082 18.6287C4.04704 18.4274 3.55514 18.107 3.15111 17.6911L3.14201 17.6817L3.13265 17.6726C2.71672 17.2686 2.39636 16.7767 2.19499 16.2329L2.19504 16.2329L2.19171 16.2242C1.93322 15.5478 1.79631 14.831 1.7873 14.107L1.78703 14.0857L1.78576 14.0644C1.72402 13.0325 1.72373 12.7329 1.72373 10C1.72373 7.2671 1.72402 6.96751 1.78576 5.93557L1.78703 5.91432L1.7873 5.89303C1.79631 5.16898 1.93322 4.45222 2.19171 3.77582L2.19175 3.77584L2.19499 3.76708C2.39636 3.22331 2.71672 2.73141 3.13265 2.32737L3.14201 2.31828L3.15111 2.30892C3.55514 1.89299 4.04704 1.57263 4.59082 1.37126L4.59083 1.37131L4.59955 1.36798C5.27595 1.10949 5.99271 0.972584 6.71676 0.963567L6.73805 0.963301L6.7593 0.96203C7.79124 0.90029 8.09084 0.9 10.8237 0.9C13.5566 0.9 13.8562 0.90029 14.8882 0.96203Z" stroke="white" stroke-width="1.8"/>
</g>
</svg>
