<svg width="17" height="16" viewBox="0 0 17 16" fill="none" xmlns="http://www.w3.org/2000/svg">
<mask id="path-1-inside-1_2_740" fill="white">
<path d="M14.9727 14.6671V13.1856C14.9727 12.3998 14.6526 11.6461 14.0831 11.0905C13.5135 10.5348 12.7409 10.2227 11.9354 10.2227H5.86095C5.05543 10.2227 4.2829 10.5348 3.71331 11.0905C3.14372 11.6461 2.82373 12.3998 2.82373 13.1856V14.6671"/>
</mask>
<path d="M3.71331 11.0905L4.76076 12.1642L4.76077 12.1642L3.71331 11.0905ZM16.4727 14.6671V13.1856H13.4727V14.6671H16.4727ZM16.4727 13.1856C16.4727 11.9898 15.9853 10.8507 15.1305 10.0168L13.0356 12.1642C13.32 12.4416 13.4727 12.8098 13.4727 13.1856H16.4727ZM15.1305 10.0168C14.2769 9.18404 13.1269 8.72266 11.9354 8.72266V11.7227C12.3549 11.7227 12.75 11.8856 13.0356 12.1642L15.1305 10.0168ZM11.9354 8.72266H5.86095V11.7227H11.9354V8.72266ZM5.86095 8.72266C4.66943 8.72266 3.51944 9.18406 2.66585 10.0168L4.76077 12.1642C5.04635 11.8856 5.44143 11.7227 5.86095 11.7227V8.72266ZM2.66587 10.0168C1.811 10.8507 1.32373 11.9899 1.32373 13.1856H4.32373C4.32373 12.8098 4.47643 12.4416 4.76076 12.1642L2.66587 10.0168ZM1.32373 13.1856V14.6671H4.32373V13.1856H1.32373Z" fill="white" mask="url(#path-1-inside-1_2_740)"/>
<path d="M11.9353 4.29646C11.9353 5.93285 10.5755 7.25942 8.89806 7.25942C7.22065 7.25942 5.86084 5.93285 5.86084 4.29646C5.86084 2.66007 7.22065 1.3335 8.89806 1.3335C10.5755 1.3335 11.9353 2.66007 11.9353 4.29646Z" fill="white"/>
</svg>
